<svg width="auto" height="auto" viewBox="0 0 533 128" fill="none" xmlns="http://www.w3.org/2000/svg">
<path d="M211.792 90.0003H198.844L181.606 70.8123H176.068V90.0003H165.46V37.7403H190.498C196.114 37.7403 200.638 39.3003 204.07 42.3423C207.502 45.3843 209.218 49.3623 209.218 54.2763C209.218 58.6443 207.814 62.3103 205.162 65.1963C202.432 68.1603 198.766 69.9543 194.242 70.5783L211.792 90.0003ZM176.068 61.2183H190.498C192.916 61.2183 194.866 60.5943 196.426 59.3463C197.908 58.0983 198.688 56.3823 198.688 54.2763C198.688 52.2483 197.908 50.5323 196.426 49.2843C194.866 48.0363 192.916 47.3343 190.498 47.3343H176.068V61.2183Z" fill="white"/>
<path d="M257.721 80.4063V90.0003H218.019V37.7403H257.565V47.3343H228.627V59.1123H255.303V68.5503H228.627V80.4063H257.721Z" fill="white"/>
<path d="M317.14 90.0003H305.674L301.15 78.8463H278.062L273.46 90.0003H261.994L284.614 37.7403H294.52L317.14 90.0003ZM297.172 69.2523L289.606 50.6103L281.962 69.2523H297.172Z" fill="white"/>
<path d="M346.195 81.2643C350.017 81.2643 353.293 80.1723 356.101 77.9883C358.831 75.8043 360.703 72.5283 361.639 68.1603L371.935 70.2663C370.687 76.8183 367.645 81.9663 362.965 85.6323C358.207 89.3763 352.591 91.1703 346.195 91.1703C338.473 91.1703 331.999 88.5963 326.695 83.2923C321.391 78.0663 318.739 71.5923 318.739 63.8703C318.739 56.2263 321.391 49.8303 326.695 44.5263C331.999 39.2223 338.473 36.5703 346.195 36.5703C352.591 36.5703 358.129 38.4423 362.887 42.0303C367.567 45.6183 370.609 50.5323 371.935 56.6943L361.639 59.5803C360.703 55.2903 358.831 52.0143 356.023 49.8303C353.215 47.6463 349.939 46.5543 346.195 46.5543C341.437 46.5543 337.459 48.2703 334.261 51.5463C330.985 54.8223 329.425 58.9563 329.425 63.8703C329.425 68.8623 330.985 72.9963 334.261 76.2723C337.537 79.6263 341.515 81.2643 346.195 81.2643Z" fill="white"/>
<path d="M419.628 47.3343H402.234V90.0003H391.626V47.3343H374.232V37.7403H419.628V47.3343Z" fill="white"/>
<path d="M449.486 36.5703C457.13 36.5703 463.682 39.2223 468.986 44.5263C474.29 49.8303 477.02 56.3043 477.02 63.9483C477.02 71.5923 474.29 77.9883 468.986 83.2923C463.682 88.5963 457.13 91.1703 449.486 91.1703C441.764 91.1703 435.212 88.5963 429.908 83.2923C424.604 77.9883 421.952 71.5923 421.952 63.9483C421.952 56.3043 424.604 49.8303 429.908 44.5263C435.212 39.2223 441.764 36.5703 449.486 36.5703ZM449.486 81.1863C454.166 81.1863 458.144 79.5483 461.42 76.2723C464.696 72.9963 466.334 68.9403 466.334 63.9483C466.334 59.0343 464.696 54.9003 461.42 51.5463C458.144 48.2703 454.166 46.5543 449.486 46.5543C444.728 46.5543 440.75 48.2703 437.474 51.5463C434.198 54.9003 432.638 59.0343 432.638 63.9483C432.638 68.9403 434.198 72.9963 437.474 76.2723C440.75 79.5483 444.728 81.1863 449.486 81.1863Z" fill="white"/>
<path d="M531.942 90.0003H518.994L501.756 70.8123H496.218V90.0003H485.61V37.7403H510.648C516.264 37.7403 520.788 39.3003 524.22 42.3423C527.652 45.3843 529.368 49.3623 529.368 54.2763C529.368 58.6443 527.964 62.3103 525.312 65.1963C522.582 68.1603 518.916 69.9543 514.392 70.5783L531.942 90.0003ZM496.218 61.2183H510.648C513.066 61.2183 515.016 60.5943 516.576 59.3463C518.058 58.0983 518.838 56.3823 518.838 54.2763C518.838 52.2483 518.058 50.5323 516.576 49.2843C515.016 48.0363 513.066 47.3343 510.648 47.3343H496.218V61.2183Z" fill="white"/>
<path fill-rule="evenodd" clip-rule="evenodd" d="M64 128C99.3462 128 128 99.3462 128 64C128 28.6538 99.3462 0 64 0C28.6538 0 0 28.6538 0 64C0 99.3462 28.6538 128 64 128ZM64 120C70.4559 120 76.6566 118.908 82.4274 116.897C82.251 116.826 82.0762 116.752 81.9031 116.676C77.9615 114.959 73.8091 111.948 69.6949 108.158C67.8261 106.437 65.9208 104.514 63.9994 102.41C62.0783 104.514 60.1731 106.437 58.3046 108.157C54.1904 111.947 50.038 114.958 46.0964 116.676C45.9231 116.751 45.748 116.825 45.5714 116.897C51.3426 118.907 57.5437 120 64 120ZM100.667 105.843C100.646 106.024 100.624 106.205 100.599 106.386C110.109 98.1681 116.823 86.8034 119.126 73.9103C118.942 74.0548 118.757 74.1958 118.57 74.3333C115.112 76.8882 110.428 78.9785 105.089 80.6469C102.621 81.4182 99.9527 82.1178 97.1142 82.7378C98.0429 85.6216 98.8059 88.3907 99.3939 91.0114C100.618 96.4692 101.15 101.571 100.667 105.843ZM118.57 52.6668C118.682 52.7491 118.793 52.8326 118.903 52.9174C116.412 40.5081 109.819 29.5819 100.599 21.6135C100.624 21.7951 100.646 21.9763 100.667 22.1569C101.15 26.4291 100.619 31.5309 99.394 36.9886C98.8698 39.325 98.2065 41.7792 97.4107 44.3275C100.139 44.9313 102.707 45.6089 105.089 46.3533C110.428 48.0217 115.112 50.1119 118.57 52.6668ZM81.9031 11.3237C82.0763 11.2482 82.2511 11.1745 82.4275 11.1026C76.6567 9.09245 70.4559 8 64 8C57.5436 8 51.3425 9.09261 45.5713 11.103C45.7479 11.175 45.923 11.2489 46.0964 11.3244C50.038 13.0417 54.1903 16.0532 58.3046 19.8426C60.1731 21.5636 62.0783 23.4865 63.9994 25.5902C65.9208 23.4862 67.8262 21.563 69.6949 19.8419C73.8092 16.0525 77.9615 13.041 81.9031 11.3237ZM9.0965 52.9174C11.5876 40.5083 18.1805 29.5823 27.4005 21.6139C27.3757 21.7956 27.3531 21.9769 27.3327 22.1576C26.8491 26.4298 27.381 31.5316 28.6055 36.9894C29.1297 39.3255 29.7929 41.7796 30.5886 44.3277C27.8609 44.9314 25.2925 45.609 22.9106 46.3533C17.5718 48.0217 12.8876 50.112 9.42958 52.6668C9.3182 52.7491 9.20714 52.8327 9.0965 52.9174ZM27.4005 106.386C17.8912 98.1677 11.1766 86.8033 8.8742 73.9103C9.05812 74.0548 9.2434 74.1958 9.42958 74.3333C12.8876 76.8882 17.5718 78.9785 22.9106 80.6469C25.3787 81.4181 28.0469 82.1176 30.8851 82.7377C29.9565 85.6212 29.1935 88.3902 28.6056 91.0107C27.381 96.4685 26.8491 101.57 27.3327 105.842C27.3532 106.023 27.3757 106.204 27.4005 106.386ZM57.0018 95.2409L57 95.25L80 59.9999L65.5887 59.9999L70.9966 32.7673C77.4743 34.212 83.2116 37.6205 87.5511 42.3354C88.4111 39.6778 89.1082 37.1543 89.6366 34.7994C90.7364 29.8974 91.0393 26.0114 90.7303 23.2817C90.4076 20.4311 89.5734 19.8749 89.4998 19.8324C89.4261 19.7899 88.5273 19.3455 85.8973 20.4914C83.3788 21.5886 80.1649 23.7939 76.4696 27.1974C74.6983 28.8288 72.8657 30.6895 70.9985 32.7576L71 32.75L48 68.0001H62.4113L57.0034 95.2329C50.5254 93.7881 44.788 90.3794 40.4484 85.6642C39.5884 88.3217 38.8913 90.8451 38.363 93.2C37.2631 98.102 36.9603 101.988 37.2692 104.718C37.5919 107.568 38.4261 108.124 38.4998 108.167C38.5734 108.209 39.4722 108.654 42.1022 107.508C44.6207 106.411 47.8346 104.205 51.53 100.802C53.3015 99.1704 55.1343 97.3093 57.0018 95.2409ZM33.6261 53.9014C32.5712 57.0759 32 60.4713 32 64.0001C32 67.1348 32.4507 70.1642 33.2909 73.0271C30.6248 72.4523 28.1487 71.8068 25.8934 71.1021C21.0982 69.6036 17.5814 67.9229 15.3719 66.2904C13.0646 64.5857 13 63.5851 13 63.5001C13 63.4151 13.0646 62.4145 15.3719 60.7098C17.5814 59.0773 21.0982 57.3966 25.8934 55.8981C28.2429 55.1639 30.8321 54.494 33.6261 53.9014ZM57.0081 32.7662C50.5282 34.2104 44.789 37.6196 40.4484 42.336C39.5884 39.6784 38.8913 37.155 38.3629 34.8001C37.2631 29.8981 36.9602 26.0121 37.2692 23.2824C37.5919 20.4318 38.4261 19.8756 38.4997 19.8331C38.5734 19.7906 39.4722 19.3462 42.1022 20.4921C44.6207 21.5894 47.8346 23.7946 51.5299 27.1981C53.3034 28.8316 55.1384 30.695 57.0081 32.7662ZM94.7091 73.0271C95.5493 70.1642 96 67.1348 96 64.0001C96 60.4713 95.4288 57.0759 94.3739 53.9014C97.1679 54.494 99.7571 55.1639 102.107 55.8981C106.902 57.3966 110.419 59.0773 112.628 60.7097C114.935 62.4145 115 63.415 115 63.5001C115 63.5851 114.935 64.5857 112.628 66.2904C110.419 67.9229 106.902 69.6036 102.107 71.102C99.8513 71.8068 97.3753 72.4523 94.7091 73.0271ZM70.9909 95.2342C77.471 93.7901 83.2103 90.3811 87.5511 85.6648C88.4111 88.3224 89.1082 90.8458 89.6365 93.2007C90.7364 98.1027 91.0393 101.989 90.7303 104.718C90.4076 107.569 89.5734 108.125 89.4997 108.168C89.4261 108.21 88.5273 108.655 85.8973 107.509C83.3788 106.411 80.1649 104.206 76.4695 100.803C74.6959 99.1691 72.8608 97.3055 70.9909 95.2342Z" fill="white"/>
</svg>
